<svg xmlns="http://www.w3.org/2000/svg" viewBox="0 0 800 400"><defs><style>.cls-2{fill:#f15a24;}.cls-3{fill:#4d4948;}</style></defs><g id="Label" data-name="Label"><path class="cls-2" d="M272.49,212.37l-13.75-24.29-24.67-7.25,19-2.76L235.31,146.7l-17.87-9.81,17.18,2.85,37.53,5.7-56.06-45.11c-2.76-2.67-6.88-1.47-8.32,2.44l-14.4,55,20,3.36L191.21,166l-12.39,47.31,36.85,5.2-41.56,6.63-52,26s34.15-1.54,45.76-3.16c44-6.14,76.34-6.76,120.36-13.54,7.71-1.19,37.56-20.62,37.56-20.62Z"/><path class="cls-3" d="M140.94,288.6c0,4.13-1.08,7.24-3.24,9.36s-5.34,3.16-9.53,3.16h-5.89V276.55h6.64q5.88,0,9,3.08T140.94,288.6Zm-1.87.07q0-5.28-2.68-7.94c-1.78-1.78-4.41-2.67-7.87-2.67H124v21.55h4.06Q139.07,299.61,139.07,288.67Z"/><path class="cls-3" d="M163.59,292.45h-10l-3.43,8.67h-1.9l9.89-24.67h1.09l9.68,24.67H167Zm-9.37-1.55H163l-3.34-8.85c-.28-.7-.62-1.66-1-2.9a25.67,25.67,0,0,1-1,2.93Z"/><path class="cls-3" d="M184,301.12h-1.73v-23h-8v-1.61H192v1.61h-8Z"/><path class="cls-3" d="M212.61,292.45h-10l-3.43,8.67h-1.9l9.89-24.67h1.09L218,301.12H216Zm-9.37-1.55H212l-3.35-8.85c-.28-.7-.62-1.66-1-2.9a25.67,25.67,0,0,1-1,2.93Z"/><path class="cls-3" d="M254.27,294.79a5.91,5.91,0,0,1-2.26,4.87,9.38,9.38,0,0,1-6,1.8,18.83,18.83,0,0,1-6.91-1v-1.72a17.49,17.49,0,0,0,6.77,1.13,7.55,7.55,0,0,0,4.8-1.39,4.39,4.39,0,0,0,1.77-3.64,4.21,4.21,0,0,0-.58-2.31,5.56,5.56,0,0,0-1.92-1.67,24.14,24.14,0,0,0-3.9-1.63,13.35,13.35,0,0,1-5.2-2.8,5.55,5.55,0,0,1-1.44-4,5.5,5.5,0,0,1,2.16-4.49,8.58,8.58,0,0,1,5.56-1.74,16.17,16.17,0,0,1,6.5,1.31L253,279a15.21,15.21,0,0,0-5.85-1.28A6.87,6.87,0,0,0,242.8,279a4.13,4.13,0,0,0-1.61,3.43,4.36,4.36,0,0,0,.5,2.23,4.55,4.55,0,0,0,1.62,1.58,22.75,22.75,0,0,0,3.86,1.67,20.73,20.73,0,0,1,4.32,1.92,6.17,6.17,0,0,1,2.11,2.12A5.83,5.83,0,0,1,254.27,294.79Z"/><path class="cls-3" d="M271,301.12H269.3v-23h-8v-1.61H279v1.61h-8Z"/><path class="cls-3" d="M301.25,301.12H287.82V276.55h13.43v1.58H289.54v9.29H300.6V289H289.54v10.54h11.71Z"/><path class="cls-3" d="M331.56,301.12h-1.41l-5.39-19c-.45-1.55-.79-2.83-1-3.83-.18,1-.44,2.1-.77,3.36s-2.13,7.75-5.42,19.43h-1.44l-6.76-24.57h1.8l4.3,15.83c.17.64.33,1.23.47,1.78s.28,1,.4,1.53.22.93.32,1.37.18.89.26,1.34c.27-1.52.84-3.84,1.71-6.94l4.2-14.91h1.9l4.93,17.11q.86,3,1.23,4.77c.14-.8.33-1.66.56-2.57s2-7.34,5.18-19.31h1.74Z"/><path class="cls-3" d="M359.69,292.45h-10l-3.43,8.67h-1.9l9.88-24.67h1.09L365,301.12H363.1Zm-9.36-1.55h8.79l-3.35-8.85c-.28-.7-.61-1.66-1-2.9a25.67,25.67,0,0,1-1,2.93Z"/><path class="cls-3" d="M375.39,290.42v10.7h-1.71V276.55h5.85q4.58,0,6.76,1.69a6,6,0,0,1,2.18,5.08,6.63,6.63,0,0,1-1.3,4.17,7.25,7.25,0,0,1-4,2.44l6.67,11.19h-2.05l-6.34-10.7Zm0-1.48h4.69a7.47,7.47,0,0,0,4.83-1.39,5,5,0,0,0,1.71-4.09,4.83,4.83,0,0,0-1.68-4.09q-1.68-1.28-5.48-1.27h-4.07Z"/><path class="cls-3" d="M418,288.6c0,4.13-1.08,7.24-3.25,9.36s-5.34,3.16-9.53,3.16H399.3V276.55h6.64q5.88,0,8.95,3.08T418,288.6Zm-1.87.07q0-5.28-2.68-7.94c-1.79-1.78-4.41-2.67-7.88-2.67H401v21.55h4.07Q416.09,299.61,416.09,288.67Z"/><path class="cls-3" d="M442.33,294.79a5.88,5.88,0,0,1-2.26,4.87,9.38,9.38,0,0,1-6,1.8,18.9,18.9,0,0,1-6.91-1v-1.72a17.5,17.5,0,0,0,6.78,1.13,7.57,7.57,0,0,0,4.8-1.39,4.39,4.39,0,0,0,1.77-3.64,4.21,4.21,0,0,0-.59-2.31,5.43,5.43,0,0,0-1.91-1.67,24.14,24.14,0,0,0-3.9-1.63,13.41,13.41,0,0,1-5.21-2.8,5.59,5.59,0,0,1-1.43-4,5.5,5.5,0,0,1,2.16-4.49,8.57,8.57,0,0,1,5.55-1.74,16.18,16.18,0,0,1,6.51,1.31l-.62,1.48a15.21,15.21,0,0,0-5.85-1.28,6.85,6.85,0,0,0-4.34,1.26,4.1,4.1,0,0,0-1.61,3.43,4.46,4.46,0,0,0,.49,2.23,4.55,4.55,0,0,0,1.62,1.58,22.57,22.57,0,0,0,3.87,1.67,20.73,20.73,0,0,1,4.32,1.92,6.26,6.26,0,0,1,2.11,2.12A5.83,5.83,0,0,1,442.33,294.79Z"/><path class="cls-3" d="M470.49,301.12h-1.73V289H454.4v12.08h-1.71V276.55h1.71v10.91h14.36V276.55h1.73Z"/><path class="cls-3" d="M482.61,301.12V276.55h1.72v24.57Z"/><path class="cls-3" d="M511.24,283.61a6.51,6.51,0,0,1-2.42,5.46Q506.41,291,502,291h-3.79v10.15h-1.72V276.55h6Q511.25,276.55,511.24,283.61Zm-13.07,5.88h3.37c2.77,0,4.77-.45,6-1.37a5.13,5.13,0,0,0,1.85-4.44,5,5,0,0,0-1.74-4.21c-1.17-.92-3-1.37-5.42-1.37h-4.06Z"/><path class="cls-3" d="M555.44,301.12H554l-5.4-19c-.44-1.55-.78-2.83-1-3.83-.17,1-.43,2.1-.76,3.36s-2.14,7.75-5.42,19.43H540l-6.75-24.57H535l4.31,15.83c.17.64.32,1.23.47,1.78s.28,1,.39,1.53.23.93.32,1.37.19.89.26,1.34c.27-1.52.84-3.84,1.72-6.94l4.2-14.91h1.9l4.92,17.11c.58,2,1,3.56,1.23,4.77.15-.8.33-1.66.56-2.57s2-7.34,5.19-19.31h1.73Z"/><path class="cls-3" d="M571.73,301.12V276.55h1.72v24.57Z"/><path class="cls-3" d="M600.55,301.12H583.47v-1.27l14.39-21.69H584.12v-1.61h16v1.28l-14.42,21.68h14.81Z"/><path class="cls-3" d="M622.4,292.45h-10L609,301.12h-1.9L617,276.45h1.09l9.69,24.67h-1.94ZM613,290.9h8.79l-3.35-8.85c-.28-.7-.61-1.66-1-2.9a27.71,27.71,0,0,1-1,2.93Z"/><path class="cls-3" d="M638.1,290.42v10.7h-1.71V276.55h5.85q4.57,0,6.76,1.69a6,6,0,0,1,2.18,5.08,6.63,6.63,0,0,1-1.3,4.17,7.25,7.25,0,0,1-4,2.44l6.67,11.19h-2.05l-6.33-10.7Zm0-1.48h4.69a7.45,7.45,0,0,0,4.83-1.39,5,5,0,0,0,1.71-4.09,4.83,4.83,0,0,0-1.68-4.09q-1.68-1.28-5.48-1.27H638.1Z"/><path class="cls-3" d="M680.67,288.6c0,4.13-1.08,7.24-3.25,9.36s-5.34,3.16-9.53,3.16H662V276.55h6.64q5.88,0,9,3.08T680.67,288.6Zm-1.87.07q0-5.28-2.68-7.94t-7.87-2.67h-4.53v21.55h4.07Q678.8,299.61,678.8,288.67Z"/><path class="cls-3" d="M440.9,174q0,26.46-15.06,40.53t-43.5,14.07H352V121.46h33.64q26.24,0,40.75,13.85T440.9,174Zm-23.6.59q0-34.53-30.49-34.52H374.72v69.77h9.75Q417.29,209.85,417.3,174.6Z"/><path class="cls-3" d="M522.76,198.86q0,14.5-10.44,22.86t-29.06,8.36q-17.14,0-30.34-6.45V202.52a125.64,125.64,0,0,0,18.36,6.82,54.19,54.19,0,0,0,13.74,2q7.47,0,11.47-2.86t4-8.5a9.42,9.42,0,0,0-1.76-5.61,19.67,19.67,0,0,0-5.16-4.73,135.4,135.4,0,0,0-13.89-7.25q-9.82-4.62-14.73-8.87a33.18,33.18,0,0,1-7.85-9.9,28.28,28.28,0,0,1-2.93-13.19q0-14.22,9.64-22.35t26.64-8.14a62.89,62.89,0,0,1,15.94,2,110,110,0,0,1,15.87,5.57l-7.33,17.66a106.55,106.55,0,0,0-14.18-4.9,45.63,45.63,0,0,0-11-1.4q-6.45,0-9.9,3a9.91,9.91,0,0,0-3.44,7.84,9.7,9.7,0,0,0,1.39,5.24,15.3,15.3,0,0,0,4.44,4.32q3,2.1,14.4,7.52,15,7.17,20.59,14.4T522.76,198.86Z"/><path class="cls-3" d="M653.74,228.61H627.87l-14.52-56.28q-.79-3-2.74-12.43t-2.24-12.64q-.43,4-2.2,12.72t-2.71,12.49L589,228.61H563.23L535.89,121.46h22.35L572,180q3.59,16.2,5.2,28.07.44-4.19,2-12.94t3-13.59l15.61-60h21.48l15.61,60q1,4,2.56,12.31T639.74,208q.74-5.72,2.34-14.26T645,180l13.63-58.49H681Z"/></g></svg>